<svg viewBox="0 0 64 64" fill="none" xmlns="http://www.w3.org/2000/svg">
  <defs>
    <linearGradient id="cameraGradient" x1="0%" y1="0%" x2="100%" y2="100%">
      <stop offset="0%" stop-color="#6366F1" />
      <stop offset="100%" stop-color="#8B5CF6" />
    </linearGradient>
    <linearGradient id="lensGradient" x1="0%" y1="0%" x2="100%" y2="100%">
      <stop offset="0%" stop-color="#4F46E5" />
      <stop offset="100%" stop-color="#6366F1" />
    </linearGradient>
    <linearGradient id="accentGradient" x1="0%" y1="0%" x2="100%" y2="100%">
      <stop offset="0%" stop-color="#10B981" />
      <stop offset="100%" stop-color="#059669" />
    </linearGradient>
  </defs>
  
  <rect x="12" y="20" width="40" height="28" rx="4" fill="url(#cameraGradient)" />
  <rect x="12" y="20" width="40" height="28" rx="4" fill="url(#cameraGradient)" opacity="0.8" />
  
  <circle cx="32" cy="34" r="10" fill="url(#lensGradient)" />
  <circle cx="32" cy="34" r="8" fill="#818CF8" opacity="0.6" />
  <circle cx="32" cy="34" r="6" fill="#A5B4FC" />
  <circle cx="30" cy="32" r="2" fill="#E0E7FF" />
  
  <rect x="20" y="12" width="8" height="6" rx="2" fill="url(#accentGradient)" />
  
  <path
    d="M16 24 L16 16 L48 16 L48 24"
    stroke="url(#accentGradient)"
    stroke-width="2.5"
    stroke-linecap="round"
    fill="none"
  />
  
  <path
    d="M52 20 L52 28 M48 24 L56 24"
    stroke="url(#accentGradient)"
    stroke-width="3.5"
    stroke-linecap="round"
  />
  
  <path
    d="M16 20 Q32 18 48 20"
    stroke="rgba(255, 255, 255, 0.3)"
    stroke-width="1"
    fill="none"
  />
</svg>

